<?xml version="1.0" encoding="UTF-8" standalone="no"?>
<!DOCTYPE svg PUBLIC "-//W3C//DTD SVG 1.1//EN" "http://www.w3.org/Graphics/SVG/1.1/DTD/svg11.dtd">
<svg width="38.000000pt" height="38.000000pt" viewBox="0 0 1230 1021" version="1.1" xmlns="http://www.w3.org/2000/svg" xmlns:xlink="http://www.w3.org/1999/xlink" xml:space="preserve" xmlns:serif="http://www.serif.com/" style="fill-rule:evenodd;clip-rule:evenodd;">
    <g id="Hole" transform="matrix(1,0,0,1,-14.0714,198.896)">
        <circle cx="631.657" cy="311.869" r="362.55" style="fill:rgb(224,224,224);stroke:rgb(224,224,224);stroke-width:1.6px;"/>
    </g>
    <g id="Layer1">
        <path d="M458.333,249.635L776.629,249.635L745.243,788.652L490.035,788.652L458.333,249.635Z" style="fill:rgb(80,80,80);"/>
    </g>
    <g id="Chip-Hole" serif:id="Chip Hole" transform="matrix(1,0,0,1,-14.0714,198.896)">
        <path d="M790.7,50.739L472.405,50.739C381.389,106.178 325.636,205.298 325.525,311.869C325.684,431.212 395.615,540.032 504.106,589.756L759.314,589.756C867.764,540.001 937.65,431.187 937.789,311.869C937.633,205.256 881.796,106.127 790.7,50.739" style="fill:rgb(80,80,80);fill-rule:nonzero;stroke:rgb(232,232,232);stroke-opacity:0.92;stroke-width:1.6px;"/>
    </g>
    <g id="Contacts">
        <g id="C1" transform="matrix(1,0,0,1,-14.0714,198.896)">
            <path d="M125.259,-129.539C106.673,-129.539 50.911,-129.538 50.911,50.739L50.911,74.705L459.2,74.705L513.714,170.341L563.261,170.341L563.261,74.705L443.659,-125.311L400.828,-125.311L400.828,-129.539L125.259,-129.539ZM125.259,-94.723L170.514,-94.723L170.514,50.739L125.259,50.739L125.259,-94.723ZM400.828,-50.681L443.659,-50.681L443.659,50.739L400.828,50.739L400.828,-50.681Z" style="fill:rgb(192,192,192);stroke:rgb(192,192,192);stroke-width:1.6px;"/>
        </g>
        <g id="C2" transform="matrix(1,0,0,1,-14.0714,198.896)">
            <path d="M50.911,99.605L50.911,302.461L488.914,302.461L488.914,198.461L432,99.605L50.911,99.605ZM125.259,129.889L170.514,129.889L170.514,272.747L125.259,272.747L125.259,129.889ZM400.828,181.089L443.659,181.089L443.659,272.747L400.828,272.747L400.828,181.089Z" style="fill:rgb(192,192,192);stroke:rgb(192,192,192);stroke-width:1.6px;"/>
        </g>
        <g id="C3" transform="matrix(1,0,0,1,-14.0714,198.896)">
            <path d="M50.911,327.923L50.911,529.955L432,529.955L488.914,433.319L488.914,327.923L50.911,327.923ZM125.259,358.461L170.514,358.461L170.514,503.605L125.259,503.605L125.259,358.461ZM400.828,358.461L443.659,358.461L443.659,449.889L400.828,449.889L400.828,358.461Z" style="fill:rgb(192,192,192);stroke:rgb(192,192,192);stroke-width:1.6px;"/>
        </g>
        <g id="C4" transform="matrix(1,0,0,1,-14.0714,198.896)">
            <path d="M513.714,460.456L459.2,559.452L170.57,559.452L170.577,556.016L50.975,556.016L50.689,592.839L50.689,670.545C50.689,705.903 86.979,760.314 93.475,760.305L125.322,760.259L170.514,760.259L170.514,760.269L432,760.269L563.261,553.889L563.261,460.456L513.714,460.456L513.714,460.456ZM170.514,589.717L170.514,725.444L125.322,725.444L125.322,589.794L170.514,589.717L170.514,589.717ZM400.828,589.756L443.659,589.756L443.659,681.073L400.828,681.073L400.828,589.756Z" style="fill:rgb(192,192,192);stroke:rgb(192,192,192);stroke-width:1.6px;"/>
        </g>
        <g id="C5" transform="matrix(1,0,0,1,-14.0714,198.896)">
            <path d="M596.394,-163.414L596.394,198.461L513.714,198.461L513.714,433.319L596.394,433.319L596.394,801.484L663.469,801.484L663.469,433.319L752.572,433.319L752.572,198.461L663.469,198.461L663.469,74.705L765.6,-94.723L850.144,-94.723L850.144,-72.905L786.4,-72.905L690.944,85.089L690.944,170.341L740.572,170.341L796,74.705L1212.26,74.705L1212.26,-50.681C1212.26,-72.904 1171.99,-125.311 1163.77,-125.523C1163.77,-125.523 1133.09,-125.311 1133.06,-125.311L752.572,-125.311C752.572,-125.311 680,-3.406 680,-3.406L663.469,-3.406L663.469,-163.414L596.394,-163.414ZM1083.69,-94.723L1132.99,-94.723L1132.99,50.739L1083.69,50.739L1083.69,-94.723ZM808.93,-50.681L850.144,-50.681L850.144,50.739L808.93,50.739L808.93,-50.681Z" style="fill:rgb(192,192,192);stroke:rgb(192,192,192);stroke-width:1.6px;"/>
        </g>
        <g id="C6" transform="matrix(1,0,0,1,-14.0714,198.896)">
            <path d="M819.33,99.605L776.471,181.089L776.471,302.461L1212.18,302.461L1212.18,99.605L819.33,99.605ZM1083.69,129.889L1132.99,129.889L1132.99,272.747L1083.69,272.747L1083.69,129.889ZM808.93,181.089L850.144,181.089L850.144,272.747L808.93,272.747L808.93,181.089Z" style="fill:rgb(192,192,192);stroke:rgb(192,192,192);stroke-width:1.6px;"/>
        </g>
        <g id="C7" transform="matrix(1,0,0,1,-14.0714,198.896)">
            <path d="M776.471,327.923L776.471,460.456L819.33,529.955L1212.18,529.955L1212.18,327.923L850.144,327.923L776.471,327.923ZM808.93,358.461L850.144,358.461L850.144,449.889L808.93,449.889L808.93,358.461ZM1083.69,358.461L1132.99,358.461L1132.99,503.605L1083.69,503.605L1083.69,358.461Z" style="fill:rgb(192,192,192);stroke:rgb(192,192,192);stroke-width:1.6px;"/>
        </g>
        <g id="C8" transform="matrix(1,0,0,1,-14.0714,198.896)">
            <path d="M690.944,460.456L690.944,553.889L808.93,760.269L1163.8,760.269C1183.97,760.269 1212.18,708.819 1212.59,687.942L1212.18,559.452L796,559.452L740.572,460.456L690.944,460.456ZM1083.69,589.755L1132.99,589.755L1132.99,738.689L1083.69,738.689L1083.69,589.755ZM808.93,589.756L850.144,589.756L850.144,681.073L808.93,681.073L808.93,589.756Z" style="fill:rgb(192,192,192);stroke:rgb(192,192,192);stroke-width:1.6px;"/>
        </g>
    </g>
    <g id="Bindings">
        <g id="path3400" transform="matrix(1,0,0,1,-14.0714,198.896)">
            <circle cx="630.965" cy="674.56" r="23.765" style="fill:rgb(144,144,144);stroke:rgb(144,144,144);stroke-opacity:0.75;stroke-width:1.6px;"/>
        </g>
        <g id="path3400-2" transform="matrix(1,0,0,1,-14.0714,198.896)">
            <circle cx="632.76" cy="-41.42" r="23.765" style="fill:rgb(144,144,144);stroke:rgb(144,144,144);stroke-opacity:0.75;stroke-width:1.6px;"/>
        </g>
        <g id="path3400-2-5" transform="matrix(1,0,0,1,-14.0714,198.896)">
            <circle cx="737.832" cy="122.677" r="23.765" style="fill:rgb(144,144,144);stroke:rgb(144,144,144);stroke-opacity:0.75;stroke-width:1.6px;"/>
        </g>
        <g id="path3400-2-8" transform="matrix(1,0,0,1,-14.0714,198.896)">
            <circle cx="526.847" cy="118.588" r="23.765" style="fill:rgb(144,144,144);stroke:rgb(144,144,144);stroke-opacity:0.75;stroke-width:1.6px;"/>
        </g>
        <g id="path3400-2-7" transform="matrix(1,0,0,1,-14.0714,198.896)">
            <circle cx="792.784" cy="234.99" r="23.765" style="fill:rgb(144,144,144);stroke:rgb(144,144,144);stroke-opacity:0.75;stroke-width:1.6px;"/>
        </g>
        <g id="path3400-2-78" transform="matrix(1,0,0,1,-14.0714,198.896)">
            <circle cx="792.703" cy="397.439" r="23.765" style="fill:rgb(144,144,144);stroke:rgb(144,144,144);stroke-opacity:0.75;stroke-width:1.6px;"/>
        </g>
        <g id="path3400-2-73" transform="matrix(1,0,0,1,-14.0714,198.896)">
            <circle cx="524.471" cy="511.368" r="23.765" style="fill:rgb(144,144,144);stroke:rgb(144,144,144);stroke-opacity:0.75;stroke-width:1.6px;"/>
        </g>
        <g id="path3400-2-4" transform="matrix(1,0,0,1,-14.0714,198.896)">
            <circle cx="737.007" cy="512.984" r="23.765" style="fill:rgb(144,144,144);stroke:rgb(144,144,144);stroke-opacity:0.75;stroke-width:1.6px;"/>
        </g>
        <g id="path3400-2-56" transform="matrix(1,0,0,1,-14.0714,198.896)">
            <circle cx="472.751" cy="234.99" r="23.765" style="fill:rgb(144,144,144);stroke:rgb(144,144,144);stroke-opacity:0.75;stroke-width:1.6px;"/>
        </g>
        <g id="path3400-2-50" transform="matrix(1,0,0,1,-14.0714,198.896)">
            <circle cx="469.519" cy="395.806" r="23.765" style="fill:rgb(144,144,144);stroke:rgb(144,144,144);stroke-opacity:0.75;stroke-width:1.6px;"/>
        </g>
    </g>
</svg>
